<svg id="Layer_1" data-name="Layer 1" xmlns="http://www.w3.org/2000/svg" viewBox="0 0 53.63 18.91"><defs><style>.cls-1{fill:#fff;}</style></defs><title>iscem</title><path class="cls-1" d="M119.37,135h-2V120.8h2Z" transform="translate(-117.38 -116.24)"/><path class="cls-1" d="M125.21,135a7.41,7.41,0,0,1-1.72-.58,8,8,0,0,1-1.49-1l1.25-1.52a5.65,5.65,0,0,0,1.78,1,6.33,6.33,0,0,0,2.12.35,4.24,4.24,0,0,0,2.39-.57,1.83,1.83,0,0,0,.85-1.62h0a1.68,1.68,0,0,0-.38-1.17,2.32,2.32,0,0,0-1-.65,10.22,10.22,0,0,0-1.58-.38h-.12l-.15,0a15.69,15.69,0,0,1-2.32-.55,3.34,3.34,0,0,1-1.53-1.13,3.7,3.7,0,0,1-.63-2.32h0a4.19,4.19,0,0,1,.59-2.25,3.74,3.74,0,0,1,1.72-1.42,7,7,0,0,1,2.73-.49,6.83,6.83,0,0,1,1.5.17,8,8,0,0,1,1.45.49,8.52,8.52,0,0,1,1.41.83L131,123.72a6.52,6.52,0,0,0-1.62-.89,4.54,4.54,0,0,0-1.61-.3,3.78,3.78,0,0,0-2.26.58,1.92,1.92,0,0,0-.81,1.65h0a1.56,1.56,0,0,0,.42,1.15,2.54,2.54,0,0,0,1,.62,16.17,16.17,0,0,0,1.73.41l.07,0H128l.11,0,.11,0a12.21,12.21,0,0,1,2.15.63,3.39,3.39,0,0,1,1.45,1.16,3.77,3.77,0,0,1,.58,2.21v0a3.93,3.93,0,0,1-.62,2.22,3.82,3.82,0,0,1-1.78,1.4,7.23,7.23,0,0,1-2.82.49A9.31,9.31,0,0,1,125.21,135Zm-.84-17.54,1.11-1.17,1.91,1.47,1.9-1.47,1.11,1.17-3,2.34Z" transform="translate(-117.38 -116.24)"/><path class="cls-1" d="M136.86,134.49a4.42,4.42,0,0,1-1.73-1.85,6,6,0,0,1-.62-2.79V126a6,6,0,0,1,.62-2.79,4.51,4.51,0,0,1,1.73-1.86,5,5,0,0,1,2.6-.66,4.84,4.84,0,0,1,2.24.53,4.62,4.62,0,0,1,1.72,1.48,5.42,5.42,0,0,1,.93,2.21h-2a3.18,3.18,0,0,0-.62-1.18,3.05,3.05,0,0,0-1-.81,2.75,2.75,0,0,0-1.21-.28,2.79,2.79,0,0,0-1.53.42,2.82,2.82,0,0,0-1,1.17,4.11,4.11,0,0,0-.36,1.77v3.89a4.07,4.07,0,0,0,.36,1.76,2.79,2.79,0,0,0,1,1.18,2.87,2.87,0,0,0,1.53.41,2.84,2.84,0,0,0,1.21-.26,3,3,0,0,0,1-.78,3.25,3.25,0,0,0,.62-1.23h2a5.43,5.43,0,0,1-.94,2.21,4.62,4.62,0,0,1-1.72,1.48,4.82,4.82,0,0,1-2.23.53A5,5,0,0,1,136.86,134.49Zm-.4-17.08,1.11-1.17,1.91,1.47,1.9-1.47,1.11,1.17-3,2.34Z" transform="translate(-117.38 -116.24)"/><path class="cls-1" d="M147,120.8h2V135h-2Zm1,0h8.16v1.9H148Zm0,6.2H155v1.9H148Zm0,6.11h8.16V135H148Z" transform="translate(-117.38 -116.24)"/><path class="cls-1" d="M169.14,120.8H171V135h-1.94V124.37l.09.62-3.49,8h-1.39l-3.5-7.84.1-.82V135h-1.94V120.8h1.86l4.17,9.38Z" transform="translate(-117.38 -116.24)"/></svg>