<svg id="graphics" xmlns="http://www.w3.org/2000/svg" viewBox="0 0 381.14 389.67"><defs><style>.cls-1{fill:#fff;}</style></defs><title>logo</title><path class="cls-1" d="M314.46,122.48a3.58,3.58,0,0,0,3.21,5.49,18.68,18.68,0,0,1,5.8.81,18.43,18.43,0,0,1,5.27,2.56,3.57,3.57,0,0,0,5.72-2.76c.31-5.94-2.43-11.13-7.1-12.55S317.51,117.38,314.46,122.48Z" transform="translate(-230.38 -60.68)"/><path class="cls-1" d="M510.53,133.12a18.84,18.84,0,0,1,11.56-.56,3.56,3.56,0,0,0,4.45-4.53c-1.7-5.69-6-9.66-10.91-9.42s-8.81,4.6-10,10.42A3.57,3.57,0,0,0,510.53,133.12Z" transform="translate(-230.38 -60.68)"/><path class="cls-1" d="M583.59,360.82a27,27,0,0,0,4.26-14.55c0-14.5-11.28-27.62-31.16-29a8.65,8.65,0,0,0-.86-.16c-26.59-27.26-38.78-93.29-31.55-133,24.19-1.89,41.2-16.1,47.56-40.36,2.81-10.72-2.17-19-12.49-21-5.06-1-8.42-4-10.27-9.18-.06-.16-.13-.33-.2-.49-9.75-21.63-26.65-24.3-37.85-25.3,0,0,.05-.12,0-.12C507,88,502,88,504.65,85c7.15-7.93,8.4-11.67,9.23-14.55,1.81-6.37-4.94-10.53-10-9.7-27.81,4.59-55.07,29.43-69.48,63.1-1.88,4.41-5.08,12-9.09,21.65-5.09-12.22-15.44-41.65-45.28-57.15a73.06,73.06,0,0,0-39.56-8.13c-11.27.68-34.69,2.1-47.32,30.42-.39.38-3.46,3-16.76,4.41a151.27,151.27,0,0,1-15.8.8h-.08a6.47,6.47,0,0,0-6.46,6.38c-.47,36.69,16.07,52.67,28.47,59.49l.05,0c7.47,4.5,16.9,5.56,25.66,5.56,4.75,0,9.07-.31,12.29-.63,2.43,15.33,7,77.37-23.76,130.62-19.72,1.46-30.82,14.59-30.82,28.94a27,27,0,0,0,4.26,14.55s7,12.92,28.25,12.92h69.47a6.46,6.46,0,1,0,0-12.92H296.31c-12.05,0-17.44-7.31-17.44-14.55,0-9.21,8.05-15.72,20.42-16.1,5.68,1.26,12.55,4.47,15.37,12.52a6.46,6.46,0,0,0,12.2-4.28A30.94,30.94,0,0,0,310,320.16C338.77,267.59,336.6,207,333.46,186.27a56.5,56.5,0,0,0-2.38-9.3,6.47,6.47,0,0,0-6.95-3.74c-5.62.92-20.91,2.53-31.51-1-.31-.1-.6-.21-.89-.32-11.59-5-19.25-15-22.69-29.14,4.2-.95,10.28-4.37,14.24-15.54,12.2-1.94,19.12-5.52,21.62-11.15,6-13.45,14.46-18.92,23.85-21.26,4.86-1.21,17.37-2.9,28,4.22a18.3,18.3,0,0,1,6.81,9.42c2.41,7,.67,14.74-4.89,21.9-14.42,18.56-18.06,28-16.73,40.34a22.8,22.8,0,0,0,11.91,17.92c9.4,5.21,21.71,5.39,31.11-.41,10.11-6.25,16-17.36,18.82-36.1a.36.36,0,0,1,0-.1c-2.46-6.29-6.35-14.93-11.14-21,.37,5.22,1.12,11.81-.41,18.78-3.09,14-5.05,21-12.92,26.73-6.09,4.42-14.13,3.56-19.21.74a9.92,9.92,0,0,1-5.32-8c-.72-6.66,0-12.92,14.08-31,8.86-11.39,11.66-25.85,4.92-38.6a41.45,41.45,0,0,1,5.25,3.19h0s9,5.71,18.45,17.86c2.73,3.52,12.32,16.16,20.87,41.81-19.55,48.55-48.15,124.86-48.15,155.85a55.37,55.37,0,0,0,110.73,0c0-16.78-10-52.57-29.72-106.37-4.5-12.3-9.08-24.31-13.36-35.27l-6.57,18.7C448.58,240.72,468,297.26,468,318.38a42.43,42.43,0,1,1-84.86,0c0-32.76,36.78-125.16,49.15-155.7a0,0,0,0,0,0,0c6.9-17,12.26-29.64,14-33.69,9.17-21.43,27.7-44.58,50.28-52.89-16.87,16.15-10.83,24.61-4.66,24.61h16.72c10.39.86,21.24,2,28.36,17.62,2.8,7.64,8,13.13,15,15.86-1.51,3.8-2.68,10.3,4.84,13.7-5.69,13.43-18.16,25.94-45.16,23.25A6.46,6.46,0,0,0,510.42,184l.77.07c-3.33,20.62-2.12,47.62,3.38,73.35,5.72,26.74,15.39,49,27.63,63.89a30.77,30.77,0,0,0-14.61,17.12,6.46,6.46,0,1,0,12.2,4.28c2.81-8,9.63-11.23,15.29-12.5,26.73,1.25,25.57,30.63,2.4,30.63H483.33a6.46,6.46,0,1,0,0,12.92h74.15C577.93,373.74,583.59,360.82,583.59,360.82Z" transform="translate(-230.38 -60.68)"/><path class="cls-1" d="M230.38,399.38h6.41l24.67,39-.83.9v-39.9h7v50.41h-6.49l-24.6-38.4.83-.9v39.3h-7Z" transform="translate(-230.38 -60.68)"/><path class="cls-1" d="M293.17,399.38h6l18.59,50.45h-7.63l-14-40.7-14,40.7h-7.63Zm-10,32.65h26.54v6.73H283.14Z" transform="translate(-230.38 -60.68)"/><path class="cls-1" d="M326.41,448.72a14.35,14.35,0,0,1-5.49-4.58l5.8-4.17a6.53,6.53,0,0,0,2.81,2.64,9.2,9.2,0,0,0,4.27.94,8.11,8.11,0,0,0,6.4-2.57q2.26-2.57,2.27-7.22V399.38h7.08V433.8a20.06,20.06,0,0,1-1.84,8.95,12.74,12.74,0,0,1-5.38,5.65,17.43,17.43,0,0,1-8.53,2A16.79,16.79,0,0,1,326.41,448.72Z" transform="translate(-230.38 -60.68)"/><path class="cls-1" d="M362,399.38h7.07v50.45H362Zm4.78,43.72h11.42c3.72,0,6.61-1,8.65-2.9S390,435.55,390,432V417.18c0-3.51-1-6.24-3.07-8.17s-4.93-2.9-8.65-2.9H366.82v-6.73H378a23.3,23.3,0,0,1,10.37,2.12,14.74,14.74,0,0,1,6.56,6.17,19.93,19.93,0,0,1,2.25,9.79v14.29a19.93,19.93,0,0,1-2.25,9.79,14.77,14.77,0,0,1-6.57,6.17A23.45,23.45,0,0,1,378,449.83H366.82Z" transform="translate(-230.38 -60.68)"/><path class="cls-1" d="M408,399.38h7.08v50.45H408Zm3.43,0h29v6.73h-29Zm0,22h25.16v6.73H411.4Zm0,21.69h29v6.73h-29Z" transform="translate(-230.38 -60.68)"/><path class="cls-1" d="M450.43,399.38h6.42l24.67,39-.83.9v-39.9h7v50.41h-6.48l-24.6-38.4.83-.9v39.3h-7Z" transform="translate(-230.38 -60.68)"/><path class="cls-1" d="M507.49,448a15.76,15.76,0,0,1-6.16-6.59,21.35,21.35,0,0,1-2.19-9.89V417.7a21.41,21.41,0,0,1,2.19-9.89,15.91,15.91,0,0,1,6.16-6.6,17.7,17.7,0,0,1,9.21-2.35,17.3,17.3,0,0,1,8,1.86,16.9,16.9,0,0,1,6.09,5.26,19.71,19.71,0,0,1,3.31,7.87h-7.25a11.33,11.33,0,0,0-2.2-4.21,10.77,10.77,0,0,0-3.63-2.87,9.76,9.76,0,0,0-13.32,4.67,14.31,14.31,0,0,0-1.29,6.26v13.84a14.39,14.39,0,0,0,1.29,6.25,9.74,9.74,0,0,0,3.61,4.18,9.87,9.87,0,0,0,5.41,1.47,10.43,10.43,0,0,0,4.32-.93,10.26,10.26,0,0,0,3.61-2.78,11.07,11.07,0,0,0,2.2-4.37h7.25a19.7,19.7,0,0,1-3.33,7.88,17,17,0,0,1-6.11,5.25,17.22,17.22,0,0,1-7.94,1.86A17.88,17.88,0,0,1,507.49,448Z" transform="translate(-230.38 -60.68)"/><path class="cls-1" d="M540.15,442.4h7.42v7.43h-7.42Z" transform="translate(-230.38 -60.68)"/><path class="cls-1" d="M558.16,399.38h7.07v50.45h-7.07Zm5.55,28.31L586,399.38h8.71l-32,38.93Zm8.39-4.78,5.59-5.17,19.11,32.09h-8.67Z" transform="translate(-230.38 -60.68)"/><path class="cls-1" d="M611.51,449.83h-7.07V399.38h7.07Z" transform="translate(-230.38 -60.68)"/></svg>