<svg id="Layer_1" data-name="Layer 1" xmlns="http://www.w3.org/2000/svg" viewBox="0 0 59.17 18.91"><defs><style>.cls-1{fill:#fff;}</style></defs><title>nasel</title><path class="cls-1" d="M117.38,120.8h1.8l6.95,11-.24.25V120.8h2V135H126l-6.93-10.81.24-.25V135h-2Z" transform="translate(-117.38 -116.24)"/><path class="cls-1" d="M135.05,120.8h1.7L142,135h-2.15l-3.94-11.46L132,135h-2.15ZM132.23,130h7.47v1.89h-7.47Z" transform="translate(-117.38 -116.24)"/><path class="cls-1" d="M145.68,135a7.25,7.25,0,0,1-1.72-.58,8,8,0,0,1-1.49-1l1.24-1.52a5.7,5.7,0,0,0,1.79,1,6.33,6.33,0,0,0,2.12.35,4.24,4.24,0,0,0,2.39-.57,1.83,1.83,0,0,0,.85-1.62h0a1.73,1.73,0,0,0-.38-1.17,2.32,2.32,0,0,0-1-.65,10.22,10.22,0,0,0-1.58-.38h-.12l-.15,0a15.69,15.69,0,0,1-2.32-.55,3.29,3.29,0,0,1-1.53-1.13,3.7,3.7,0,0,1-.63-2.32h0a4.1,4.1,0,0,1,.59-2.25,3.74,3.74,0,0,1,1.72-1.42,7.41,7.41,0,0,1,4.23-.32,8,8,0,0,1,1.45.49,8.52,8.52,0,0,1,1.41.83l-1.13,1.58a6.52,6.52,0,0,0-1.62-.89,4.54,4.54,0,0,0-1.61-.3,3.78,3.78,0,0,0-2.26.58,1.92,1.92,0,0,0-.81,1.65h0a1.56,1.56,0,0,0,.42,1.15,2.54,2.54,0,0,0,1,.62,15.89,15.89,0,0,0,1.72.41l.08,0h.07l.11,0,.11,0a12.48,12.48,0,0,1,2.15.63,3.37,3.37,0,0,1,1.44,1.16,3.69,3.69,0,0,1,.58,2.21v0a3.93,3.93,0,0,1-.61,2.22,3.82,3.82,0,0,1-1.78,1.4,7.23,7.23,0,0,1-2.82.49A9.31,9.31,0,0,1,145.68,135Zm-.84-17.54,1.11-1.17,1.9,1.47,1.91-1.47,1.11,1.17-3,2.34Z" transform="translate(-117.38 -116.24)"/><path class="cls-1" d="M155.47,120.8h2V135h-2Zm1,0h8.15v1.9h-8.15Zm0,6.2h7.08v1.9h-7.08Zm0,6.11h8.15V135h-8.15Z" transform="translate(-117.38 -116.24)"/><path class="cls-1" d="M167.42,120.8h2V135h-2Zm1,12.31h8.13V135h-8.13Z" transform="translate(-117.38 -116.24)"/></svg>